<mxfile host="app.diagrams.net" modified="2023-12-10T09:17:23.977Z" agent="Mozilla/5.0 (Windows NT 10.0; Win64; x64) AppleWebKit/537.36 (KHTML, like Gecko) Chrome/120.0.0.0 Safari/537.36" etag="GBdPmSQuHJ-dwek1f82X" version="22.1.7" type="google">
  <diagram name="Page-1" id="5P987uWHubWS-Gw83C2C">
    <mxGraphModel grid="0" page="1" gridSize="10" guides="1" tooltips="1" connect="1" arrows="1" fold="1" pageScale="1" pageWidth="827" pageHeight="1169" math="0" shadow="0">
      <root>
        <mxCell id="0" />
        <mxCell id="1" parent="0" />
        <mxCell id="C_F2_RYXYSwndmkMYLDd-68" value="" style="group" connectable="0" vertex="1" parent="1">
          <mxGeometry x="80" y="110" width="725" height="1020" as="geometry" />
        </mxCell>
        <mxCell id="C_F2_RYXYSwndmkMYLDd-66" value="" style="endArrow=none;dashed=1;html=1;rounded=0;exitX=1;exitY=0.5;exitDx=0;exitDy=0;strokeWidth=1;fillColor=#f5f5f5;strokeColor=#666666;" edge="1" parent="C_F2_RYXYSwndmkMYLDd-68">
          <mxGeometry width="50" height="50" relative="1" as="geometry">
            <mxPoint y="839.58" as="sourcePoint" />
            <mxPoint x="440" y="839.58" as="targetPoint" />
          </mxGeometry>
        </mxCell>
        <mxCell id="C_F2_RYXYSwndmkMYLDd-41" value="" style="endArrow=none;dashed=1;html=1;rounded=0;exitX=1;exitY=0.5;exitDx=0;exitDy=0;strokeWidth=1;fillColor=#f5f5f5;strokeColor=#666666;" edge="1" parent="C_F2_RYXYSwndmkMYLDd-68" source="C_F2_RYXYSwndmkMYLDd-2">
          <mxGeometry width="50" height="50" relative="1" as="geometry">
            <mxPoint x="18.333333333333332" as="sourcePoint" />
            <mxPoint x="440" as="targetPoint" />
          </mxGeometry>
        </mxCell>
        <mxCell id="C_F2_RYXYSwndmkMYLDd-43" value="" style="endArrow=none;dashed=1;html=1;rounded=0;exitX=1;exitY=0.5;exitDx=0;exitDy=0;strokeWidth=1;fillColor=#f5f5f5;strokeColor=#666666;" edge="1" parent="C_F2_RYXYSwndmkMYLDd-68">
          <mxGeometry width="50" height="50" relative="1" as="geometry">
            <mxPoint y="79.75999999999999" as="sourcePoint" />
            <mxPoint x="440" y="79.75999999999999" as="targetPoint" />
          </mxGeometry>
        </mxCell>
        <mxCell id="C_F2_RYXYSwndmkMYLDd-44" value="" style="endArrow=none;dashed=1;html=1;rounded=0;exitX=1;exitY=0.5;exitDx=0;exitDy=0;strokeWidth=1;fillColor=#f5f5f5;strokeColor=#666666;" edge="1" parent="C_F2_RYXYSwndmkMYLDd-68">
          <mxGeometry width="50" height="50" relative="1" as="geometry">
            <mxPoint y="119.75999999999999" as="sourcePoint" />
            <mxPoint x="440" y="119.75999999999999" as="targetPoint" />
          </mxGeometry>
        </mxCell>
        <mxCell id="C_F2_RYXYSwndmkMYLDd-45" value="" style="endArrow=none;dashed=1;html=1;rounded=0;exitX=1;exitY=0.5;exitDx=0;exitDy=0;strokeWidth=1;fillColor=#f5f5f5;strokeColor=#666666;" edge="1" parent="C_F2_RYXYSwndmkMYLDd-68">
          <mxGeometry width="50" height="50" relative="1" as="geometry">
            <mxPoint y="159.76" as="sourcePoint" />
            <mxPoint x="440" y="159.76" as="targetPoint" />
          </mxGeometry>
        </mxCell>
        <mxCell id="C_F2_RYXYSwndmkMYLDd-46" value="" style="endArrow=none;dashed=1;html=1;rounded=0;exitX=1;exitY=0.5;exitDx=0;exitDy=0;strokeWidth=1;fillColor=#f5f5f5;strokeColor=#666666;" edge="1" parent="C_F2_RYXYSwndmkMYLDd-68">
          <mxGeometry width="50" height="50" relative="1" as="geometry">
            <mxPoint y="199.76" as="sourcePoint" />
            <mxPoint x="440" y="199.76" as="targetPoint" />
          </mxGeometry>
        </mxCell>
        <mxCell id="C_F2_RYXYSwndmkMYLDd-47" value="" style="endArrow=none;dashed=1;html=1;rounded=0;exitX=1;exitY=0.5;exitDx=0;exitDy=0;strokeWidth=1;fillColor=#f5f5f5;strokeColor=#666666;" edge="1" parent="C_F2_RYXYSwndmkMYLDd-68">
          <mxGeometry width="50" height="50" relative="1" as="geometry">
            <mxPoint y="239.76" as="sourcePoint" />
            <mxPoint x="440" y="239.76" as="targetPoint" />
          </mxGeometry>
        </mxCell>
        <mxCell id="C_F2_RYXYSwndmkMYLDd-48" value="" style="endArrow=none;dashed=1;html=1;rounded=0;exitX=1;exitY=0.5;exitDx=0;exitDy=0;strokeWidth=1;fillColor=#f5f5f5;strokeColor=#666666;" edge="1" parent="C_F2_RYXYSwndmkMYLDd-68">
          <mxGeometry width="50" height="50" relative="1" as="geometry">
            <mxPoint y="279.76" as="sourcePoint" />
            <mxPoint x="440" y="279.76" as="targetPoint" />
          </mxGeometry>
        </mxCell>
        <mxCell id="C_F2_RYXYSwndmkMYLDd-49" value="" style="endArrow=none;dashed=1;html=1;rounded=0;exitX=1;exitY=0.5;exitDx=0;exitDy=0;strokeWidth=1;fillColor=#f5f5f5;strokeColor=#666666;" edge="1" parent="C_F2_RYXYSwndmkMYLDd-68">
          <mxGeometry width="50" height="50" relative="1" as="geometry">
            <mxPoint y="319.76" as="sourcePoint" />
            <mxPoint x="440" y="319.76" as="targetPoint" />
          </mxGeometry>
        </mxCell>
        <mxCell id="C_F2_RYXYSwndmkMYLDd-50" value="" style="endArrow=none;dashed=1;html=1;rounded=0;exitX=1;exitY=0.5;exitDx=0;exitDy=0;strokeWidth=1;fillColor=#f5f5f5;strokeColor=#666666;" edge="1" parent="C_F2_RYXYSwndmkMYLDd-68">
          <mxGeometry width="50" height="50" relative="1" as="geometry">
            <mxPoint y="359.76" as="sourcePoint" />
            <mxPoint x="440" y="359.76" as="targetPoint" />
          </mxGeometry>
        </mxCell>
        <mxCell id="C_F2_RYXYSwndmkMYLDd-51" value="" style="endArrow=none;dashed=1;html=1;rounded=0;exitX=1;exitY=0.5;exitDx=0;exitDy=0;strokeWidth=1;fillColor=#f5f5f5;strokeColor=#666666;" edge="1" parent="C_F2_RYXYSwndmkMYLDd-68">
          <mxGeometry width="50" height="50" relative="1" as="geometry">
            <mxPoint y="400" as="sourcePoint" />
            <mxPoint x="440" y="400" as="targetPoint" />
          </mxGeometry>
        </mxCell>
        <mxCell id="C_F2_RYXYSwndmkMYLDd-52" value="" style="endArrow=none;dashed=1;html=1;rounded=0;exitX=1;exitY=0.5;exitDx=0;exitDy=0;strokeWidth=1;fillColor=#f5f5f5;strokeColor=#666666;" edge="1" parent="C_F2_RYXYSwndmkMYLDd-68">
          <mxGeometry width="50" height="50" relative="1" as="geometry">
            <mxPoint y="440" as="sourcePoint" />
            <mxPoint x="440" y="440" as="targetPoint" />
          </mxGeometry>
        </mxCell>
        <mxCell id="C_F2_RYXYSwndmkMYLDd-53" value="" style="endArrow=none;dashed=1;html=1;rounded=0;exitX=1;exitY=0.5;exitDx=0;exitDy=0;strokeWidth=1;fillColor=#f5f5f5;strokeColor=#666666;" edge="1" parent="C_F2_RYXYSwndmkMYLDd-68">
          <mxGeometry width="50" height="50" relative="1" as="geometry">
            <mxPoint y="480" as="sourcePoint" />
            <mxPoint x="440" y="480" as="targetPoint" />
          </mxGeometry>
        </mxCell>
        <mxCell id="C_F2_RYXYSwndmkMYLDd-54" value="" style="endArrow=none;dashed=1;html=1;rounded=0;exitX=1;exitY=0.5;exitDx=0;exitDy=0;strokeWidth=1;fillColor=#f5f5f5;strokeColor=#666666;" edge="1" parent="C_F2_RYXYSwndmkMYLDd-68">
          <mxGeometry width="50" height="50" relative="1" as="geometry">
            <mxPoint y="520" as="sourcePoint" />
            <mxPoint x="440" y="520" as="targetPoint" />
          </mxGeometry>
        </mxCell>
        <mxCell id="C_F2_RYXYSwndmkMYLDd-55" value="" style="endArrow=none;dashed=1;html=1;rounded=0;exitX=1;exitY=0.5;exitDx=0;exitDy=0;strokeWidth=1;fillColor=#f5f5f5;strokeColor=#666666;" edge="1" parent="C_F2_RYXYSwndmkMYLDd-68">
          <mxGeometry width="50" height="50" relative="1" as="geometry">
            <mxPoint y="564.26" as="sourcePoint" />
            <mxPoint x="440" y="564.26" as="targetPoint" />
          </mxGeometry>
        </mxCell>
        <mxCell id="C_F2_RYXYSwndmkMYLDd-56" value="" style="endArrow=none;dashed=1;html=1;rounded=0;exitX=1;exitY=0.5;exitDx=0;exitDy=0;strokeWidth=1;fillColor=#f5f5f5;strokeColor=#666666;" edge="1" parent="C_F2_RYXYSwndmkMYLDd-68">
          <mxGeometry width="50" height="50" relative="1" as="geometry">
            <mxPoint y="604.26" as="sourcePoint" />
            <mxPoint x="440" y="604.26" as="targetPoint" />
          </mxGeometry>
        </mxCell>
        <mxCell id="C_F2_RYXYSwndmkMYLDd-57" value="" style="endArrow=none;dashed=1;html=1;rounded=0;exitX=1;exitY=0.5;exitDx=0;exitDy=0;strokeWidth=1;fillColor=#f5f5f5;strokeColor=#666666;" edge="1" parent="C_F2_RYXYSwndmkMYLDd-68">
          <mxGeometry width="50" height="50" relative="1" as="geometry">
            <mxPoint y="644.26" as="sourcePoint" />
            <mxPoint x="440" y="644.26" as="targetPoint" />
          </mxGeometry>
        </mxCell>
        <mxCell id="C_F2_RYXYSwndmkMYLDd-58" value="" style="endArrow=none;dashed=1;html=1;rounded=0;exitX=1;exitY=0.5;exitDx=0;exitDy=0;strokeWidth=1;fillColor=#f5f5f5;strokeColor=#666666;" edge="1" parent="C_F2_RYXYSwndmkMYLDd-68">
          <mxGeometry width="50" height="50" relative="1" as="geometry">
            <mxPoint y="684.26" as="sourcePoint" />
            <mxPoint x="440" y="684.26" as="targetPoint" />
          </mxGeometry>
        </mxCell>
        <mxCell id="C_F2_RYXYSwndmkMYLDd-59" value="" style="endArrow=none;dashed=1;html=1;rounded=0;exitX=1;exitY=0.5;exitDx=0;exitDy=0;strokeWidth=1;fillColor=#f5f5f5;strokeColor=#666666;" edge="1" parent="C_F2_RYXYSwndmkMYLDd-68">
          <mxGeometry width="50" height="50" relative="1" as="geometry">
            <mxPoint y="724.26" as="sourcePoint" />
            <mxPoint x="440" y="724.26" as="targetPoint" />
          </mxGeometry>
        </mxCell>
        <mxCell id="C_F2_RYXYSwndmkMYLDd-60" value="" style="endArrow=none;dashed=1;html=1;rounded=0;exitX=1;exitY=0.5;exitDx=0;exitDy=0;strokeWidth=1;fillColor=#f5f5f5;strokeColor=#666666;" edge="1" parent="C_F2_RYXYSwndmkMYLDd-68">
          <mxGeometry width="50" height="50" relative="1" as="geometry">
            <mxPoint y="764.26" as="sourcePoint" />
            <mxPoint x="440" y="764.26" as="targetPoint" />
          </mxGeometry>
        </mxCell>
        <mxCell id="C_F2_RYXYSwndmkMYLDd-61" value="" style="endArrow=none;dashed=1;html=1;rounded=0;exitX=1;exitY=0.5;exitDx=0;exitDy=0;strokeWidth=1;fillColor=#f5f5f5;strokeColor=#666666;" edge="1" parent="C_F2_RYXYSwndmkMYLDd-68">
          <mxGeometry width="50" height="50" relative="1" as="geometry">
            <mxPoint y="799.76" as="sourcePoint" />
            <mxPoint x="440" y="799.76" as="targetPoint" />
          </mxGeometry>
        </mxCell>
        <mxCell id="C_F2_RYXYSwndmkMYLDd-62" value="" style="endArrow=none;dashed=1;html=1;rounded=0;exitX=1;exitY=0.5;exitDx=0;exitDy=0;strokeWidth=1;fillColor=#f5f5f5;strokeColor=#666666;" edge="1" parent="C_F2_RYXYSwndmkMYLDd-68">
          <mxGeometry width="50" height="50" relative="1" as="geometry">
            <mxPoint y="959.76" as="sourcePoint" />
            <mxPoint x="440" y="959.76" as="targetPoint" />
          </mxGeometry>
        </mxCell>
        <mxCell id="C_F2_RYXYSwndmkMYLDd-63" value="" style="endArrow=none;dashed=1;html=1;rounded=0;exitX=1;exitY=0.5;exitDx=0;exitDy=0;strokeWidth=1;fillColor=#f5f5f5;strokeColor=#666666;" edge="1" parent="C_F2_RYXYSwndmkMYLDd-68">
          <mxGeometry width="50" height="50" relative="1" as="geometry">
            <mxPoint y="879.76" as="sourcePoint" />
            <mxPoint x="440" y="879.76" as="targetPoint" />
          </mxGeometry>
        </mxCell>
        <mxCell id="C_F2_RYXYSwndmkMYLDd-64" value="" style="endArrow=none;dashed=1;html=1;rounded=0;exitX=1;exitY=0.5;exitDx=0;exitDy=0;strokeWidth=1;fillColor=#f5f5f5;strokeColor=#666666;" edge="1" parent="C_F2_RYXYSwndmkMYLDd-68">
          <mxGeometry width="50" height="50" relative="1" as="geometry">
            <mxPoint y="919.76" as="sourcePoint" />
            <mxPoint x="440" y="919.76" as="targetPoint" />
          </mxGeometry>
        </mxCell>
        <mxCell id="C_F2_RYXYSwndmkMYLDd-65" value="" style="endArrow=none;dashed=1;html=1;rounded=0;exitX=1;exitY=0.5;exitDx=0;exitDy=0;strokeWidth=1;fillColor=#f5f5f5;strokeColor=#666666;" edge="1" parent="C_F2_RYXYSwndmkMYLDd-68">
          <mxGeometry width="50" height="50" relative="1" as="geometry">
            <mxPoint y="1000" as="sourcePoint" />
            <mxPoint x="440" y="1000" as="targetPoint" />
          </mxGeometry>
        </mxCell>
        <mxCell id="C_F2_RYXYSwndmkMYLDd-42" value="" style="endArrow=none;dashed=1;html=1;rounded=0;exitX=1;exitY=0.5;exitDx=0;exitDy=0;strokeWidth=1;fillColor=#f5f5f5;strokeColor=#666666;" edge="1" parent="C_F2_RYXYSwndmkMYLDd-68">
          <mxGeometry width="50" height="50" relative="1" as="geometry">
            <mxPoint y="39.75999999999999" as="sourcePoint" />
            <mxPoint x="440" y="39.75999999999999" as="targetPoint" />
          </mxGeometry>
        </mxCell>
        <mxCell id="C_F2_RYXYSwndmkMYLDd-30" value="Countdown Begins" style="rounded=1;whiteSpace=wrap;html=1;fillColor=#33b679;strokeColor=none;fontFamily=Omnes Pro;fontSource=https%3A%2F%2Feng.fontke.com%2Ffont%2F16642106%2Fdownload%2Flogin;fontColor=#FFFFFF;" vertex="1" parent="C_F2_RYXYSwndmkMYLDd-68">
          <mxGeometry y="10" width="440" height="20" as="geometry" />
        </mxCell>
        <mxCell id="C_F2_RYXYSwndmkMYLDd-31" value="Stream Begins" style="rounded=1;whiteSpace=wrap;html=1;fillColor=#33b679;strokeColor=none;fontFamily=Omnes Pro;fontSource=https%3A%2F%2Feng.fontke.com%2Ffont%2F16642106%2Fdownload%2Flogin;fontColor=#FFFFFF;" vertex="1" parent="C_F2_RYXYSwndmkMYLDd-68">
          <mxGeometry y="30" width="440" height="20" as="geometry" />
        </mxCell>
        <mxCell id="C_F2_RYXYSwndmkMYLDd-32" value="Meet up and&amp;nbsp; Debrief" style="rounded=1;whiteSpace=wrap;html=1;fillColor=#33b679;strokeColor=none;fontFamily=Omnes Pro;fontSource=https%3A%2F%2Feng.fontke.com%2Ffont%2F16642106%2Fdownload%2Flogin;fontColor=#FFFFFF;" vertex="1" parent="C_F2_RYXYSwndmkMYLDd-68">
          <mxGeometry y="980" width="440" height="20" as="geometry" />
        </mxCell>
        <mxCell id="C_F2_RYXYSwndmkMYLDd-33" value="Minecraft Server Launch" style="rounded=1;whiteSpace=wrap;html=1;fillColor=#039BE5;strokeColor=none;fontFamily=Omnes Pro;fontSource=https%3A%2F%2Feng.fontke.com%2Ffont%2F16642106%2Fdownload%2Flogin;fontColor=#FFFFFF;" vertex="1" parent="C_F2_RYXYSwndmkMYLDd-68">
          <mxGeometry y="50" width="440" height="70" as="geometry" />
        </mxCell>
        <mxCell id="C_F2_RYXYSwndmkMYLDd-34" value="D&amp;amp;D One-shot Campaign" style="rounded=1;whiteSpace=wrap;html=1;fillColor=#039BE5;strokeColor=none;fontFamily=Omnes Pro;fontSource=https%3A%2F%2Feng.fontke.com%2Ffont%2F16642106%2Fdownload%2Flogin;fontColor=#FFFFFF;" vertex="1" parent="C_F2_RYXYSwndmkMYLDd-68">
          <mxGeometry y="280" width="440" height="80" as="geometry" />
        </mxCell>
        <mxCell id="C_F2_RYXYSwndmkMYLDd-35" value="Guest Segment with Noah,&amp;nbsp; Lordimass&#39; brother who goes to TMH" style="rounded=1;whiteSpace=wrap;html=1;fillColor=#8E24AA;strokeColor=none;fontFamily=Omnes Pro;fontSource=https%3A%2F%2Feng.fontke.com%2Ffont%2F16642106%2Fdownload%2Flogin;fontColor=#FFFFFF;" vertex="1" parent="C_F2_RYXYSwndmkMYLDd-68">
          <mxGeometry y="400" width="440" height="40" as="geometry" />
        </mxCell>
        <mxCell id="C_F2_RYXYSwndmkMYLDd-36" value="Chess Tournament" style="rounded=1;whiteSpace=wrap;html=1;fillColor=#039BE5;strokeColor=none;fontFamily=Omnes Pro;fontSource=https%3A%2F%2Feng.fontke.com%2Ffont%2F16642106%2Fdownload%2Flogin;fontColor=#FFFFFF;" vertex="1" parent="C_F2_RYXYSwndmkMYLDd-68">
          <mxGeometry y="200" width="440" height="40" as="geometry" />
        </mxCell>
        <mxCell id="C_F2_RYXYSwndmkMYLDd-37" value="Jackbox and other Party Games&lt;br&gt;(Potentially not safe for kids)" style="rounded=1;whiteSpace=wrap;html=1;fillColor=#039BE5;strokeColor=none;fontFamily=Omnes Pro;fontSource=https%3A%2F%2Feng.fontke.com%2Ffont%2F16642106%2Fdownload%2Flogin;fontColor=#FFFFFF;" vertex="1" parent="C_F2_RYXYSwndmkMYLDd-68">
          <mxGeometry y="514.5" width="440" height="95.5" as="geometry" />
        </mxCell>
        <mxCell id="C_F2_RYXYSwndmkMYLDd-38" value="Tetris Tournament" style="rounded=1;whiteSpace=wrap;html=1;fillColor=#039BE5;strokeColor=none;fontFamily=Omnes Pro;fontSource=https%3A%2F%2Feng.fontke.com%2Ffont%2F16642106%2Fdownload%2Flogin;fontColor=#FFFFFF;" vertex="1" parent="C_F2_RYXYSwndmkMYLDd-68">
          <mxGeometry y="684.5" width="440" height="50" as="geometry" />
        </mxCell>
        <mxCell id="C_F2_RYXYSwndmkMYLDd-39" value="Roblox and other Braindead Games" style="rounded=1;whiteSpace=wrap;html=1;fillColor=#039BE5;strokeColor=none;fontFamily=Omnes Pro;fontSource=https%3A%2F%2Feng.fontke.com%2Ffont%2F16642106%2Fdownload%2Flogin;fontColor=#FFFFFF;" vertex="1" parent="C_F2_RYXYSwndmkMYLDd-68">
          <mxGeometry y="840" width="440" height="40" as="geometry" />
        </mxCell>
        <mxCell id="C_F2_RYXYSwndmkMYLDd-40" value="End of Stream" style="rounded=1;whiteSpace=wrap;html=1;fillColor=#33b679;strokeColor=none;fontFamily=Omnes Pro;fontSource=https%3A%2F%2Feng.fontke.com%2Ffont%2F16642106%2Fdownload%2Flogin;fontColor=#FFFFFF;" vertex="1" parent="C_F2_RYXYSwndmkMYLDd-68">
          <mxGeometry y="1000" width="440" height="20" as="geometry" />
        </mxCell>
        <mxCell id="C_F2_RYXYSwndmkMYLDd-2" value="05:00" style="text;html=1;align=center;verticalAlign=middle;whiteSpace=wrap;rounded=0;fontColor=#808080;" vertex="1" parent="1">
          <mxGeometry x="40" y="100" width="40" height="20" as="geometry" />
        </mxCell>
        <mxCell id="C_F2_RYXYSwndmkMYLDd-3" value="06:00" style="text;html=1;align=center;verticalAlign=middle;whiteSpace=wrap;rounded=0;fontColor=#808080;" vertex="1" parent="1">
          <mxGeometry x="40" y="140" width="40" height="20" as="geometry" />
        </mxCell>
        <mxCell id="C_F2_RYXYSwndmkMYLDd-4" value="07:00" style="text;html=1;align=center;verticalAlign=middle;whiteSpace=wrap;rounded=0;fontColor=#808080;" vertex="1" parent="1">
          <mxGeometry x="40" y="180" width="40" height="20" as="geometry" />
        </mxCell>
        <mxCell id="C_F2_RYXYSwndmkMYLDd-5" value="08:00" style="text;html=1;align=center;verticalAlign=middle;whiteSpace=wrap;rounded=0;fontColor=#808080;" vertex="1" parent="1">
          <mxGeometry x="40" y="220" width="40" height="20" as="geometry" />
        </mxCell>
        <mxCell id="C_F2_RYXYSwndmkMYLDd-6" value="09:00" style="text;html=1;align=center;verticalAlign=middle;whiteSpace=wrap;rounded=0;fontColor=#808080;" vertex="1" parent="1">
          <mxGeometry x="40" y="260" width="40" height="20" as="geometry" />
        </mxCell>
        <mxCell id="C_F2_RYXYSwndmkMYLDd-7" value="10:00" style="text;html=1;align=center;verticalAlign=middle;whiteSpace=wrap;rounded=0;fontColor=#808080;" vertex="1" parent="1">
          <mxGeometry x="40" y="300" width="40" height="20" as="geometry" />
        </mxCell>
        <mxCell id="C_F2_RYXYSwndmkMYLDd-8" value="11:00" style="text;html=1;align=center;verticalAlign=middle;whiteSpace=wrap;rounded=0;fontColor=#808080;" vertex="1" parent="1">
          <mxGeometry x="40" y="340" width="40" height="20" as="geometry" />
        </mxCell>
        <mxCell id="C_F2_RYXYSwndmkMYLDd-9" value="12:00" style="text;html=1;align=center;verticalAlign=middle;whiteSpace=wrap;rounded=0;fontColor=#808080;" vertex="1" parent="1">
          <mxGeometry x="40" y="380" width="40" height="20" as="geometry" />
        </mxCell>
        <mxCell id="C_F2_RYXYSwndmkMYLDd-10" value="13:00" style="text;html=1;align=center;verticalAlign=middle;whiteSpace=wrap;rounded=0;fontColor=#808080;" vertex="1" parent="1">
          <mxGeometry x="40" y="420" width="40" height="20" as="geometry" />
        </mxCell>
        <mxCell id="C_F2_RYXYSwndmkMYLDd-11" value="14:00" style="text;html=1;align=center;verticalAlign=middle;whiteSpace=wrap;rounded=0;fontColor=#808080;" vertex="1" parent="1">
          <mxGeometry x="40" y="460" width="40" height="20" as="geometry" />
        </mxCell>
        <mxCell id="C_F2_RYXYSwndmkMYLDd-12" value="15:00" style="text;html=1;align=center;verticalAlign=middle;whiteSpace=wrap;rounded=0;fontColor=#808080;" vertex="1" parent="1">
          <mxGeometry x="40" y="500" width="40" height="20" as="geometry" />
        </mxCell>
        <mxCell id="C_F2_RYXYSwndmkMYLDd-13" value="16:00" style="text;html=1;align=center;verticalAlign=middle;whiteSpace=wrap;rounded=0;fontColor=#808080;" vertex="1" parent="1">
          <mxGeometry x="40" y="540" width="40" height="20" as="geometry" />
        </mxCell>
        <mxCell id="C_F2_RYXYSwndmkMYLDd-16" value="17:00" style="text;html=1;align=center;verticalAlign=middle;whiteSpace=wrap;rounded=0;fontColor=#808080;" vertex="1" parent="1">
          <mxGeometry x="40" y="584.5" width="40" height="20" as="geometry" />
        </mxCell>
        <mxCell id="C_F2_RYXYSwndmkMYLDd-17" value="18:00" style="text;html=1;align=center;verticalAlign=middle;whiteSpace=wrap;rounded=0;fontColor=#808080;" vertex="1" parent="1">
          <mxGeometry x="40" y="624.5" width="40" height="20" as="geometry" />
        </mxCell>
        <mxCell id="C_F2_RYXYSwndmkMYLDd-18" value="19:00" style="text;html=1;align=center;verticalAlign=middle;whiteSpace=wrap;rounded=0;fontColor=#808080;" vertex="1" parent="1">
          <mxGeometry x="40" y="664.5" width="40" height="20" as="geometry" />
        </mxCell>
        <mxCell id="C_F2_RYXYSwndmkMYLDd-19" value="20:00" style="text;html=1;align=center;verticalAlign=middle;whiteSpace=wrap;rounded=0;fontColor=#808080;" vertex="1" parent="1">
          <mxGeometry x="40" y="704.5" width="40" height="20" as="geometry" />
        </mxCell>
        <mxCell id="C_F2_RYXYSwndmkMYLDd-20" value="21:00" style="text;html=1;align=center;verticalAlign=middle;whiteSpace=wrap;rounded=0;fontColor=#808080;" vertex="1" parent="1">
          <mxGeometry x="40" y="744.5" width="40" height="20" as="geometry" />
        </mxCell>
        <mxCell id="C_F2_RYXYSwndmkMYLDd-21" value="22:00" style="text;html=1;align=center;verticalAlign=middle;whiteSpace=wrap;rounded=0;fontColor=#808080;" vertex="1" parent="1">
          <mxGeometry x="40" y="784.5" width="40" height="20" as="geometry" />
        </mxCell>
        <mxCell id="C_F2_RYXYSwndmkMYLDd-22" value="23:00" style="text;html=1;align=center;verticalAlign=middle;whiteSpace=wrap;rounded=0;fontColor=#808080;" vertex="1" parent="1">
          <mxGeometry x="40" y="824.5" width="40" height="20" as="geometry" />
        </mxCell>
        <mxCell id="C_F2_RYXYSwndmkMYLDd-23" value="00:00" style="text;html=1;align=center;verticalAlign=middle;whiteSpace=wrap;rounded=0;fontColor=#808080;" vertex="1" parent="1">
          <mxGeometry x="40" y="864.5" width="40" height="20" as="geometry" />
        </mxCell>
        <mxCell id="C_F2_RYXYSwndmkMYLDd-24" value="01:00" style="text;html=1;align=center;verticalAlign=middle;whiteSpace=wrap;rounded=0;fontColor=#808080;" vertex="1" parent="1">
          <mxGeometry x="40" y="900" width="40" height="20" as="geometry" />
        </mxCell>
        <mxCell id="C_F2_RYXYSwndmkMYLDd-25" value="02:00" style="text;html=1;align=center;verticalAlign=middle;whiteSpace=wrap;rounded=0;fontColor=#808080;" vertex="1" parent="1">
          <mxGeometry x="40" y="940" width="40" height="20" as="geometry" />
        </mxCell>
        <mxCell id="C_F2_RYXYSwndmkMYLDd-26" value="03:00" style="text;html=1;align=center;verticalAlign=middle;whiteSpace=wrap;rounded=0;fontColor=#808080;" vertex="1" parent="1">
          <mxGeometry x="40" y="980" width="40" height="20" as="geometry" />
        </mxCell>
        <mxCell id="C_F2_RYXYSwndmkMYLDd-27" value="04:00" style="text;html=1;align=center;verticalAlign=middle;whiteSpace=wrap;rounded=0;fontColor=#808080;" vertex="1" parent="1">
          <mxGeometry x="40" y="1020" width="40" height="20" as="geometry" />
        </mxCell>
        <mxCell id="C_F2_RYXYSwndmkMYLDd-28" value="05:00" style="text;html=1;align=center;verticalAlign=middle;whiteSpace=wrap;rounded=0;fontColor=#808080;" vertex="1" parent="1">
          <mxGeometry x="40" y="1060" width="40" height="20" as="geometry" />
        </mxCell>
        <mxCell id="C_F2_RYXYSwndmkMYLDd-29" value="06:00" style="text;html=1;align=center;verticalAlign=middle;whiteSpace=wrap;rounded=0;fontColor=#808080;" vertex="1" parent="1">
          <mxGeometry x="40" y="1100" width="40" height="20" as="geometry" />
        </mxCell>
      </root>
    </mxGraphModel>
  </diagram>
</mxfile>
